<?xml version="1.0" encoding="UTF-8" standalone="no"?>
<svg
   xmlns:dc="http://purl.org/dc/elements/1.1/"
   xmlns:cc="http://creativecommons.org/ns#"
   xmlns:rdf="http://www.w3.org/1999/02/22-rdf-syntax-ns#"
   xmlns:svg="http://www.w3.org/2000/svg"
   xmlns="http://www.w3.org/2000/svg"
   viewBox="0 0 83.68 77.360001"
   height="77.360001"
   width="83.68"
   xml:space="preserve"
   id="svg2"
   version="1.1"><metadata
     id="metadata8"><rdf:RDF><cc:Work
         rdf:about=""><dc:format>image/svg+xml</dc:format><dc:type
           rdf:resource="http://purl.org/dc/dcmitype/StillImage" /></cc:Work></rdf:RDF></metadata><defs
     id="defs6"><clipPath
       id="clipPath20"
       clipPathUnits="userSpaceOnUse"><path
         id="path18"
         d="M 0,0 H 627.598 V 580 H 0 Z" /></clipPath></defs><g
     transform="matrix(1.3333333,0,0,-1.3333333,0,77.36)"
     id="g10"><g
       transform="scale(0.1)"
       id="g12"><g
         id="g14"><g
           clip-path="url(#clipPath20)"
           id="g16"><path
             id="path22"
             style="fill:#fccb06;fill-opacity:1;fill-rule:nonzero;stroke:none"
             d="M 314.504,210.508 186.25,385.781 V 258.309 h 50.984 V 132.312 H 1.32031 V 258.309 H 49.168 V 454.277 H 1.32031 V 580.191 H 186.633 L 314.504,403.672 442.371,580.191 H 627.605 V 454.277 H 579.773 V 258.309 h 47.832 V 132.312 H 391.711 v 125.997 h 51.016 V 385.781 L 314.504,210.508" /><path
             id="path24"
             style="fill:#0e2b58;fill-opacity:1;fill-rule:nonzero;stroke:none"
             d="m 141.633,20.4688 h -3.321 c -0.722,-3.8086 -1.917,-6.5508 -3.554,-8.1758 -1.684,-1.6602 -3.586,-2.59769 -5.664,-2.87894 -2.074,-0.30468 -5.356,-0.46875 -9.824,-0.46875 -4.297,0 -7.192,0.53516 -8.672,1.60159 -1.496,1.0742 -2.246,2.8125 -2.246,5.1836 v 19.1523 h 7.332 c 3.039,0 5.285,-0.1758 6.726,-0.5469 1.485,-0.3515 2.539,-1.125 3.164,-2.2773 0.625,-1.1602 0.942,-3.0274 0.942,-5.6133 h 3.296 v 22.5781 h -3.296 c -0.246,-2.207 -0.649,-3.8672 -1.235,-4.9804 -0.562,-1.0938 -1.543,-1.8946 -2.976,-2.3828 -1.414,-0.4688 -3.606,-0.7032 -6.524,-0.7032 h -7.429 v 23.9649 h 8.418 c 4.285,0 7.5,-0.1758 9.656,-0.6172 2.16,-0.4102 3.808,-1.3359 5.051,-2.7735 1.199,-1.4335 2.046,-3.6796 2.539,-6.7187 h 3.125 l -0.332,16.2031 H 88.1367 v -3.6718 c 2.8203,-0.254 4.7227,-0.586 5.75,-1.0079 0.9844,-0.4687 1.6992,-1.4336 2.0625,-2.9101 0.3203,-1.7461 0.5235,-5.8594 0.5235,-12.3633 V 27.1094 c 0,-5.6758 -0.0743,-9.5899 -0.2032,-11.7188 C 96.2383,12.7617 96.0078,10.8984 95.6133,9.82422 95.2227,8.75 94.5039,8.02734 93.4844,7.59766 92.4297,7.16797 90.6445,6.85547 88.1367,6.60938 V 2.85156 h 51.9613 c 0,4.25782 0.507,10.12504 1.535,17.61724 z m 60.437,8.8671 -9.597,28.3594 -10,-28.3594 z M 230.488,2.85156 h -31.926 v 3.66016 c 2.864,0.26562 4.954,0.63672 6.25,1.18359 1.309,0.52735 1.973,1.62891 1.973,3.32029 0,0.9766 -0.23,2.3438 -0.711,3.9844 l -2.043,7.0039 h -24.058 l -2.153,-5.9297 c -0.535,-1.6992 -0.8,-3.0976 -0.8,-4.1601 0,-2.14848 0.8,-3.53519 2.414,-4.19926 1.613,-0.60546 3.855,-1.0039 6.789,-1.20312 V 2.85156 h -28.071 v 3.66016 c 2.5,0.1289 4.453,0.4414 5.864,0.94922 1.375,0.52734 2.554,1.33594 3.472,2.55856 0.93,1.1797 1.836,3.0078 2.739,5.4571 l 18.418,50.6093 -1.086,1.6094 c 3.855,1.2383 6.671,2.2852 8.359,3.1055 1.719,0.7812 3.469,1.8554 5.242,3.1523 0.82,-2.8593 1.86,-6.1601 3.039,-10.0078 l 15.11,-46.3281 c 0.972,-2.9805 1.812,-5.168 2.578,-6.5625 0.777,-1.42579 1.797,-2.44142 3.047,-3.10548 1.265,-0.64453 3.101,-1.125 5.554,-1.4375 z M 267.473,65.3711 V 40.8008 c 1.89,-0.4883 4.019,-0.7422 6.343,-0.7422 2.485,0 4.829,0.5273 6.938,1.6016 2.09,1.0078 3.777,2.3828 5.016,4.0625 1.21,1.6601 1.859,3.3984 1.996,5.2734 0.222,4.3437 -0.918,7.8828 -3.489,10.6523 -2.566,2.8047 -6.789,4.1719 -12.683,4.1719 -1.621,0 -2.989,-0.1562 -4.121,-0.4492 z m 0,-30.6641 V 24.6875 c 0.066,-5.957 0.191,-10.0391 0.449,-12.207 0.23,-2.2071 0.894,-3.68362 1.973,-4.45316 1.05,-0.82031 3.027,-1.26953 5.875,-1.41796 V 2.85156 h -28.512 v 3.75782 c 2.547,0.24609 4.39,0.59765 5.469,1.08593 1.05,0.47657 1.777,1.26953 2.136,2.42189 0.352,1.1133 0.567,2.9883 0.606,5.6133 0.066,1.9257 0.117,4.8633 0.117,8.8593 v 24.6954 c 0,7.0429 -0.156,11.457 -0.469,13.332 -0.222,1.8359 -0.887,3.0469 -1.926,3.6523 -1.035,0.6055 -3.027,0.9961 -5.933,1.1719 v 3.6524 h 30.926 c 7.863,0 13.546,-1.6133 17.004,-4.7579 3.457,-3.1914 5.195,-7.457 5.195,-12.7812 0,-3.4766 -1.153,-6.8281 -3.457,-10 -2.278,-3.1641 -5.656,-5.4492 -10.078,-6.7969 l 12.183,-22.2851 c 1.418,-2.7149 2.715,-4.80473 3.828,-6.20317 1.133,-1.40625 2.336,-2.39062 3.586,-3.03515 1.258,-0.625 2.84,-1.11329 4.746,-1.38672 V 1.52344 c -1.906,-0.12891 -3.425,-0.1875 -4.492,-0.1875 -4.258,0 -7.82,0.52734 -10.613,1.57422 -2.797,1.05468 -5.219,2.71484 -7.172,4.98828 -1.98,2.30466 -3.902,5.46096 -5.801,9.45316 l -3.765,7.9609 c -1.379,2.9687 -2.532,5.0781 -3.469,6.3359 -0.969,1.25 -2.031,2.043 -3.176,2.4336 -1.172,0.3516 -2.93,0.5469 -5.23,0.625 z m 83.32,1.0625 h -6.328 V 19.8438 c 0,-2.9883 0.152,-5.1563 0.39,-6.5508 0.29,-1.4297 1.036,-2.5 2.247,-3.2735 1.21,-0.78122 3.242,-1.13278 6.023,-1.13278 2.313,0 4.719,0.4375 7.18,1.34768 2.422,0.9179 4.507,2.4336 6.211,4.4609 1.699,2.0703 2.539,4.7383 2.539,8.0195 0,3.5743 -0.696,6.3164 -2.102,8.2227 -1.406,1.9023 -3.391,3.1836 -5.945,3.8477 -2.578,0.6757 -5.957,0.9843 -10.215,0.9843 z m -6.328,29.3282 V 42.1094 c 4.121,-0.0313 7.715,0.2265 10.762,0.7812 3.066,0.5547 5.625,1.8438 7.656,3.75 2.027,1.9141 3.047,4.8047 3.047,8.5352 0,3.8867 -1.477,6.543 -4.375,7.9765 -2.934,1.4258 -6.993,2.1485 -12.168,2.1485 -1.008,0 -2.641,-0.086 -4.922,-0.2031 z m -21.469,6.0937 h 35.141 c 3.172,0 5.933,-0.1758 8.316,-0.5195 2.387,-0.3789 4.531,-1.1524 6.438,-2.3321 2.136,-1.2812 3.82,-3.0078 5.007,-5.2851 1.196,-2.2461 1.782,-4.6953 1.782,-7.3516 0,-8.6914 -5.762,-14.2383 -17.317,-16.6211 3.133,-0.3125 5.852,-0.7031 8.086,-1.2695 2.239,-0.5391 4.285,-1.4648 6.199,-2.832 4.473,-3.1836 6.704,-7.6953 6.704,-13.6016 0,-6.0859 -2.258,-10.9297 -6.79,-14.51562 -2.089,-1.57031 -4.394,-2.63672 -6.945,-3.21094 -2.508,-0.50781 -5.75,-0.80078 -9.668,-0.80078 h -31.48 v 3.66016 c 1.719,0.4414 2.593,2.40625 2.593,5.93748 0.122,3.2149 0.161,8.9297 0.161,17.1211 v 20.4102 c 0,6.1797 -0.11,10.2343 -0.332,12.2851 -0.254,2.0117 -0.879,3.3477 -1.899,3.9727 -1.012,0.5976 -3.008,1.0469 -5.996,1.2812 z M 433.254,6.34766 c 2.344,0.07812 4.668,0.76172 7.051,2.07031 2.398,1.30859 4.55,3.39843 6.441,6.33593 2.094,3.2227 3.535,6.4375 4.359,9.6016 0.782,3.2226 1.168,6.8554 1.168,10.9453 0,10.6367 -2.539,18.7226 -7.671,24.2695 -3.696,3.7969 -7.778,5.6445 -12.266,5.5274 -4.398,0 -8.383,-1.9532 -11.965,-5.9688 -4.695,-5.3398 -7.043,-12.625 -7.043,-21.9414 0,-4.7656 0.41,-8.9258 1.313,-12.4727 0.894,-3.5234 2.539,-7 4.937,-10.3984 2.016,-2.8711 4.238,-4.90234 6.633,-6.13281 2.434,-1.23047 4.773,-1.83593 7.043,-1.83593 z m 34.058,29.57814 c 0,-7.5469 -1.542,-14.043 -4.644,-19.461 C 459.551,11.043 455.43,6.92188 450.242,4.14844 445.051,1.38672 439.387,0 433.254,0 c -6.621,0 -12.602,1.49219 -17.973,4.51953 -5.371,3.01953 -9.605,7.23827 -12.703,12.68747 -3.086,5.4688 -4.64,11.7383 -4.64,18.8477 0,6.3086 1.347,12.1758 4.066,17.5664 2.723,5.4023 6.629,9.7187 11.797,12.9609 5.137,3.2227 11.226,4.8633 18.277,4.8633 6.809,0 12.871,-1.4844 18.234,-4.5117 5.372,-3 9.543,-7.207 12.547,-12.6172 2.953,-5.3906 4.453,-11.5039 4.453,-18.3906 z m 32.993,28.8203 V 39.4219 c 2.246,-0.3789 4.351,-0.6133 6.383,-0.6133 2.5,0 4.804,0.5664 6.886,1.6992 2.078,1.1524 3.762,2.5781 5.02,4.3828 1.242,1.8086 1.926,3.6446 2.031,5.4805 0.227,4.3555 -0.891,7.8828 -3.445,10.6328 -2.524,2.7266 -6.742,4.0938 -12.637,4.0938 -1.605,0 -3.02,-0.0977 -4.238,-0.3516 z m 0,-31.3086 v -8.8477 c 0.078,-5.957 0.254,-10 0.465,-12.1406 0.246,-2.1758 0.878,-3.65232 1.972,-4.42186 1.074,-0.82031 3.051,-1.25 5.903,-1.3164 V 2.85156 h -28.516 v 3.85938 c 2.574,0.15234 4.375,0.49609 5.445,0.98437 1.086,0.47657 1.797,1.26953 2.153,2.42189 0.359,1.1133 0.574,2.9883 0.625,5.6133 0.093,1.8476 0.093,4.7773 0.093,8.7734 v 24.7813 c 0,6.9257 -0.133,11.3281 -0.359,13.2343 -0.227,1.8438 -0.867,3.0664 -1.934,3.6602 -1.047,0.5781 -3.054,1.0273 -6.023,1.2617 v 3.75 h 30.933 c 7.856,0 13.528,-1.6211 16.958,-4.8555 3.406,-3.2812 5.132,-7.5078 5.132,-12.7812 0,-2.3047 -0.484,-4.668 -1.48,-7.0899 -0.981,-2.4218 -2.473,-4.6289 -4.477,-6.582 -1.992,-1.9726 -4.48,-3.418 -7.461,-4.375 l 12.09,-21.0351 c 1.469,-2.7149 2.785,-4.80473 3.906,-6.20317 1.133,-1.40625 2.329,-2.39062 3.555,-3.03515 1.223,-0.625 2.793,-1.11329 4.668,-1.38672 V 1.52344 c -1.875,-0.12891 -3.348,-0.1875 -4.375,-0.1875 -4.273,0 -7.832,0.52734 -10.64,1.57422 -2.778,1.05468 -5.176,2.69531 -7.129,4.96093 -1.973,2.26561 -3.911,5.39061 -5.84,9.39451 l -3.75,8.0469 c -1.281,2.8711 -2.434,4.8242 -3.379,5.8984 -0.988,1.0743 -1.938,1.6875 -2.922,1.875 -0.984,0.1836 -2.82,0.293 -5.613,0.3516 z M 583.176,6.51172 c -3.801,0.4414 -6.391,0.89062 -7.778,1.38672 -1.367,0.51953 -2.285,1.53515 -2.73,3.02736 -0.449,1.5547 -0.664,4.2422 -0.664,8.1172 v 35.4375 l 27.019,-33.2696 c 1.77,-2.1679 3.594,-4.4257 5.442,-6.8164 l 3.828,-4.72653 6.07,-7.60938 h 4.028 l 0.996,52.69531 c 0.054,3.9766 0.254,6.8086 0.586,8.4688 0.332,1.6796 1.035,2.8125 2.144,3.3593 1.098,0.5664 2.934,0.8985 5.488,0.9375 v 3.6719 h -26.902 v -3.6719 c 3.938,-0.1757 6.594,-0.4883 7.996,-0.9375 1.399,-0.4297 2.309,-1.3672 2.629,-2.7539 0.36,-1.4179 0.586,-4.1133 0.637,-8.125 V 25.1367 L 592.93,48.7578 c -4.793,5.8906 -8.059,9.9922 -9.793,12.336 -1.782,2.332 -4.192,5.664 -7.309,10.0976 h -20.457 v -3.6719 c 2.317,-0.2343 4.07,-0.6172 5.274,-1.1523 1.179,-0.5469 2.714,-1.6524 4.582,-3.3984 C 565.09,56.0039 564.871,46.0938 564.52,33.2695 564.211,20.4297 563.965,12.9766 563.867,10.8008 563.801,9.62891 563.621,8.75 563.359,8.16406 563.086,7.55859 562.781,7.14844 562.371,6.98047 561.992,6.79688 561.453,6.64062 560.852,6.51172 V 2.85156 h 22.324 z M 26.6523,65.0273 H 20.6562 V 20.7305 c 0,-3.5235 0.1329,-6.0352 0.4454,-7.5274 0.2968,-1.5351 0.957,-2.5703 2.0117,-3.1562 1.0547,-0.55471 2.7539,-0.82815 5.1406,-0.82815 6.2578,0 11.5625,1.26955 15.8399,3.79685 4.3437,2.5313 7.6171,5.9688 9.7734,10.3633 2.1601,4.375 3.2734,9.3359 3.2734,14.8906 0,4.2383 -0.6836,7.9024 -2.0234,10.9297 -1.336,3.0469 -3.3906,6.0156 -6.1445,8.9258 -1.9493,2.1562 -4.1797,3.7305 -6.6368,4.7148 -2.4843,0.9883 -4.8476,1.5743 -7.1132,1.7696 -2.2461,0.2265 -5.1446,0.3594 -8.5704,0.4179 z M 30.3242,2.85156 H -0.0117188 V 6.71094 C 2.39453,6.95312 4.09375,7.28516 5.09766,7.69531 6.08203,8.10547 6.80469,8.88672 7.17578,9.96094 7.51172,11.0742 7.72656,12.8906 7.78125,15.4766 7.91016,17.6172 7.95703,21.5039 7.95703,27.168 v 23.8945 c 0,6.5664 -0.17578,10.6953 -0.52734,12.4531 C 7.0625,65 6.39453,65.957 5.39844,66.4062 4.41406,66.8359 2.60547,67.207 -0.0117188,67.4414 v 3.6524 H 31.2969 c 5.6093,0 10.1758,-0.2344 13.8086,-0.7618 3.6133,-0.5273 7.1133,-1.7578 10.4883,-3.789 4.2421,-2.5508 7.8554,-6.3594 10.8398,-11.3672 2.9805,-5.0078 4.457,-10.8789 4.457,-17.6289 0,-8.6992 -2.3633,-16.1407 -7.1289,-22.3321 C 60.832,11.4844 57.3945,8.75 53.5078,6.98047 49.5977,5.17578 45.9062,4.10156 42.4102,3.65234 38.9141,3.24219 34.8945,2.98828 30.3242,2.85156" /></g></g></g></g></svg>